# xmcd
#
# Track frame offsets: 
#        212
#        13927
#        26640
#        42350
#        56012
#        65000
#        80065
#        97167
#        111845
#        122412
#        139440
#        150640
#        162905
#        174285
#        185930
#        198767
#        209155
#        220087
#        231550
#        244910
#
# Disc length: 3433 seconds
#
# Revision: 4
# Processed by: cddbd v1.5.2PL0 Copyright (c) Steve Scherf et al.
# Submitted via: ExactAudioCopy v0.95b4
#
DISCID=330d6714
DTITLE=B.B. King - The Best Of B.B. King Volume One
DYEAR=1986
DGENRE=Blues
TTITLE0=You Upset Me Baby
TTITLE1=Every Day (I Have the Blues)
TTITLE2=5 Long Years
TTITLE3=Sweet Little Angle
TTITLE4=Beautician Blues
TTITLE5=Dust My Broom
TTITLE6=Three O'clock Blues
TTITLE7=Ain't That Just Like a Woman
TTITLE8=I'm King
TTITLE9=Sweet Sixteen (Part 1)
TTITLE10=Sweet Sixteen (Part 2)
TTITLE11=A Whole Lot of Lovin'
TTITLE12=Mean Ole Frisco
TTITLE13=Please Accept My Love
TTITLE14=Going Down Slow
TTITLE15=Blues for Me
TTITLE16=You Don't Know
TTITLE17=Early Every Morning
TTITLE18=Blues at Sunrise
TTITLE19=Please Love Me
EXTD=YEAR: 1986
EXTT0=
EXTT1=
EXTT2=
EXTT3=
EXTT4=
EXTT5=
EXTT6=
EXTT7=
EXTT8=
EXTT9=
EXTT10=
EXTT11=
EXTT12=
EXTT13=
EXTT14=
EXTT15=
EXTT16=
EXTT17=
EXTT18=
EXTT19=
PLAYORDER=
